<svg width="80" height="80" viewBox="0 0 80 80" fill="none" xmlns="http://www.w3.org/2000/svg">
<path d="M71.5 1C70.4645 6.62501 69.625 7.46445 64 8.5C69.625 9.53555 70.4645 10.375 71.5 16C72.5355 10.375 73.375 9.53555 79 8.5C73.375 7.46445 72.5355 6.62501 71.5 1Z" fill="black"/>
<path d="M24.707 41.2156H54.3102C53.0664 48.2609 46.9102 53.6094 39.5102 53.6094C32.1055 53.6094 25.9523 48.2609 24.707 41.2156Z" fill="#404040"/>
<path d="M67.5 68C67.2929 69.125 67.125 69.2929 66 69.5C67.125 69.7071 67.2929 69.875 67.5 71C67.7071 69.875 67.875 69.7071 69 69.5C67.875 69.2929 67.7071 69.125 67.5 68Z" fill="black"/>
<path d="M10.5 11C10.1548 12.875 9.87498 13.1548 8 13.5C9.87498 13.8452 10.1548 14.125 10.5 16C10.8452 14.125 11.125 13.8452 13 13.5C11.125 13.1548 10.8452 12.875 10.5 11Z" fill="black"/>
<path d="M39.8727 74.186C30.9094 74.186 22.4825 70.6952 16.1447 64.3569C9.80672 58.0188 6.31641 49.5916 6.31641 40.6281C6.31641 22.1252 21.3697 7.0719 39.8727 7.0719C58.3756 7.0719 73.4289 22.1252 73.4289 40.6281C73.4289 49.5916 69.9384 58.0188 63.6008 64.3569C57.2628 70.6952 48.8361 74.186 39.8727 74.186ZM39.8727 8.6344C22.2313 8.6344 7.87891 22.9866 7.87891 40.6281C7.87891 58.2705 22.2313 72.6236 39.8727 72.6236C57.5141 72.6236 71.8664 58.2706 71.8664 40.6281C71.8666 22.9866 57.5141 8.6344 39.8727 8.6344Z" fill="black"/>
<path d="M32.4207 30.1594C32.2484 30.1594 32.0751 30.1028 31.9306 29.9863C29.362 27.9139 27.0929 27.9061 24.7898 29.9611C24.4679 30.2485 23.974 30.2205 23.6867 29.8985C23.3993 29.5764 23.4275 29.0827 23.7493 28.7953C26.6048 26.2467 29.7729 26.2383 32.9117 28.7702C33.2475 29.0411 33.3001 29.533 33.0292 29.8688C32.875 30.06 32.6489 30.1594 32.4207 30.1594Z" fill="black"/>
<path d="M55.4793 30.1593C55.307 30.1593 55.1337 30.1028 54.9892 29.9862C52.4206 27.9136 50.1514 27.9061 47.8484 29.9611C47.5265 30.2484 47.0326 30.2204 46.7453 29.8984C46.4579 29.5764 46.4861 29.0826 46.8079 28.7953C49.6634 26.247 52.8318 26.2383 55.9703 28.7701C56.306 29.0411 56.3586 29.5329 56.0878 29.8687C55.9334 30.06 55.7075 30.1593 55.4793 30.1593Z" fill="black"/>
<path d="M39.5102 54.3906C31.8224 54.3906 25.2732 48.9069 23.9377 41.3517C23.8975 41.1242 23.96 40.8908 24.1085 40.7137C24.2569 40.5367 24.4761 40.4345 24.7071 40.4345H54.3102C54.5413 40.4345 54.7603 40.5367 54.9086 40.7136C55.0571 40.8906 55.1197 41.1242 55.0796 41.3515C53.7458 48.9069 47.198 54.3906 39.5102 54.3906ZM25.6694 41.9969C27.2186 48.3267 32.8966 52.8279 39.5102 52.8279C46.1233 52.8279 51.8003 48.3265 53.348 41.9969H25.6694Z" fill="black"/>
<path d="M8 67C7.3097 70.75 6.74995 71.3097 3 72C6.74995 72.6904 7.3097 73.25 8 77C8.6903 73.25 9.25005 72.6903 13 72C9.24995 71.3097 8.69035 70.75 8 67Z" fill="black"/>
</svg>
