<svg width="80" height="80" viewBox="0 0 80 80" fill="none" xmlns="http://www.w3.org/2000/svg">
<path d="M40.5547 6.01331C59.2984 6.01331 74.4922 21.2071 74.4922 39.9492C74.4922 58.693 59.2984 73.8867 40.5547 73.8867C21.8109 73.8867 6.61719 58.693 6.61719 39.9492C6.61719 21.2071 21.8109 6.01331 40.5547 6.01331Z" fill="white"/>
<path d="M7 67C6.3097 70.75 5.74995 71.3097 2 72C5.74995 72.6904 6.3097 73.25 7 77C7.6903 73.25 8.25005 72.6903 12 72C8.24995 71.3097 7.69035 70.75 7 67Z" fill="black"/>
<path d="M70.5 70C70.2929 71.125 70.125 71.2929 69 71.5C70.125 71.7071 70.2929 71.875 70.5 73C70.7071 71.875 70.875 71.7071 72 71.5C70.875 71.2929 70.7071 71.125 70.5 70Z" fill="black"/>
<path d="M10.5 7C10.1548 8.875 9.87498 9.15485 8 9.5C9.87498 9.84518 10.1548 10.125 10.5 12C10.8452 10.125 11.125 9.84515 13 9.5C11.125 9.15485 10.8452 8.875 10.5 7Z" fill="black"/>
<path d="M40.5548 74.668C31.2808 74.668 22.5622 71.0567 16.0047 64.4992C9.44734 57.9419 5.83594 49.2231 5.83594 39.9492C5.83594 30.6759 9.44719 21.9576 16.0047 15.4006C22.5622 8.84343 31.2809 5.23218 40.5548 5.23218C49.8288 5.23218 58.5475 8.84343 65.105 15.4006C71.6623 21.9578 75.2736 30.6761 75.2736 39.9492C75.2736 49.2233 71.6623 57.9419 65.105 64.4992C58.5475 71.0566 49.8288 74.668 40.5548 74.668ZM40.5548 6.79452C22.2723 6.79452 7.39859 21.6676 7.39859 39.9491C7.39859 58.2316 22.2723 73.1053 40.5548 73.1053C58.8372 73.1053 73.7111 58.2316 73.7111 39.9491C73.7111 21.6675 58.8373 6.79452 40.5548 6.79452Z" fill="black"/>
<path d="M32.8388 30.0305C32.6668 30.0305 32.4938 29.9741 32.3493 29.8578C29.6752 27.7049 27.314 27.6969 24.9185 29.8324C24.5963 30.1199 24.1026 30.0914 23.8154 29.7692C23.5282 29.4472 23.5565 28.9533 23.8785 28.6663C26.864 26.0041 30.0435 25.9957 33.329 28.6408C33.6651 28.9113 33.7182 29.4032 33.4476 29.7392C33.2935 29.9308 33.0671 30.0305 32.8388 30.0305Z" fill="black"/>
<path d="M56.7136 30.0305C56.5414 30.0305 56.3684 29.9741 56.2239 29.8577C53.5513 27.7047 51.19 27.6967 48.7931 29.8325C48.4713 30.1197 47.9772 30.0914 47.6902 29.7691C47.4031 29.4469 47.4316 28.9531 47.7536 28.6661C50.7405 26.0041 53.9199 25.9955 57.2041 28.641C57.54 28.9116 57.593 29.4035 57.3224 29.7394C57.1681 29.931 56.9419 30.0305 56.7136 30.0305Z" fill="black"/>
<path d="M22.4798 53.2226C22.3306 53.2226 22.1798 53.18 22.0465 53.0908C21.6878 52.8511 21.5912 52.3659 21.831 52.007C25.7803 46.0969 32.2125 42.5805 39.4782 42.3595C43.1385 42.2505 46.8379 43.0161 50.1764 44.5797C53.7454 46.2514 56.8003 48.7373 59.2556 51.9684C59.5167 52.3119 59.4498 52.802 59.1064 53.0631C58.7628 53.3247 58.2728 53.2572 58.0117 52.9139C53.5012 46.979 46.7634 43.7026 39.5257 43.9212C32.771 44.1266 26.7951 47.3901 23.1301 52.8753C22.9795 53.1008 22.732 53.2226 22.4798 53.2226Z" fill="black"/>
<path d="M72.5 1C71.4645 6.62501 70.625 7.46445 65 8.5C70.625 9.53555 71.4645 10.375 72.5 16C73.5355 10.375 74.375 9.53555 80 8.5C74.375 7.46445 73.5355 6.62501 72.5 1Z" fill="black"/>
</svg>
